<?xml version="1.0" encoding="iso-8859-1"?>
<!-- Generator: Adobe Illustrator 19.0.0, SVG Export Plug-In . SVG Version: 6.00 Build 0)  -->
<svg version="1.1" id="Capa_1" xmlns="http://www.w3.org/2000/svg" xmlns:xlink="http://www.w3.org/1999/xlink" x="0px" y="0px"
	 viewBox="0 0 512 512" style="enable-background:new 0 0 512 512;" xml:space="preserve">
<path style="fill:#EE8700;" d="M451.238,382.989v1.341c0,32.169-26.073,58.242-58.232,58.242H151.52V315.227l165.67-38.625
	c30.745-7.168,60.903-0.65,84.79,15.089C431.323,311.009,451.238,344.209,451.238,382.989z"/>
<path style="fill:#FF9811;" d="M451.238,382.989v1.341c0,32.169-26.073,58.242-58.232,58.242H229.214V368.49
	c0-21.529,14.834-40.219,35.8-45.107l129.879-30.279c2.362-0.557,4.734-1.021,7.086-1.413
	C431.323,311.009,451.238,344.209,451.238,382.989z"/>
<g>
	<path style="fill:#CC7400;" d="M483.77,442.376h-82.001c-15.526,0-28.23-12.703-28.23-28.23l0,0c0-15.526,12.703-28.23,28.23-28.23
		h82.001c15.526,0,28.23,12.703,28.23,28.23l0,0C512,429.672,499.297,442.376,483.77,442.376z"/>
	<path style="fill:#CC7400;" d="M301.544,414.147c0,7.756-3.177,14.821-8.292,19.937c-5.116,5.116-12.17,8.292-19.937,8.292H155.274
		c-15.533,0-28.239-12.707-28.239-28.229c0-7.766,3.177-14.821,8.292-19.937c5.116-5.116,12.181-8.292,19.947-8.292h118.041
		C288.838,385.918,301.544,398.614,301.544,414.147z"/>
</g>
<g>
	<circle style="fill:#AA6100;" cx="367.346" cy="263.775" r="30.246"/>
	<circle style="fill:#AA6100;" cx="67.958" cy="284.382" r="32.262"/>
</g>
<path style="fill:#FF9811;" d="M197.622,359.618v34.159c0,26.836-21.958,48.795-48.795,48.795H42.08
	c-11.572,0-22.092-4.734-29.714-12.366c-3.043-3.043-5.631-6.549-7.643-10.407C1.712,414.002,0,407.433,0,400.481
	c0-11.572,4.734-22.092,12.366-29.714c2.929-2.939,6.302-5.446,9.984-7.426c5.889-3.146,12.614-4.94,19.73-4.94
	c2.382,0,4.321-1.856,4.486-4.239c2.826-39.079,35.655-70.175,75.425-70.175c5.765,0,11.376,0.65,16.781,1.898
	C172.364,293.558,197.622,323.788,197.622,359.618z"/>
<path style="fill:#FFA733;" d="M197.622,359.618v34.159c0,26.836-21.958,48.795-48.795,48.795H75.641
	c-11.572,0-22.092-4.734-29.714-12.366c-3.043-3.043-5.631-6.549-7.643-10.407c-3.012-5.796-4.724-12.366-4.724-19.318
	c0-11.572,4.734-22.092,12.366-29.714c2.929-2.939,6.302-5.446,9.984-7.426c5.889-3.146,12.614-4.94,19.73-4.94
	c2.382,0,4.321-1.856,4.486-4.239c2.413-33.417,26.775-60.996,58.644-68.277C172.364,293.558,197.622,323.788,197.622,359.618z"/>
<g>
	<circle style="fill:#CC7400;" cx="118.743" cy="277.802" r="32.262"/>
	<path style="fill:#CC7400;" d="M17.42,414.601l-10.984,4.61l-1.712,0.588C1.712,414.002,0,407.433,0,400.481
		c0-11.572,4.734-22.092,12.366-29.714c2.929-2.939,6.302-5.446,9.984-7.426c0.866,1.877,1.351,3.084,1.351,3.084l3.744,4.229
		C40.038,384.866,34.933,407.257,17.42,414.601z"/>
</g>
<path style="fill:#AA6100;" d="M96.566,365.199c-13.531,0-24.54-11.008-24.54-24.54c0-4.272,3.462-7.735,7.735-7.735
	c4.273,0,7.735,3.463,7.735,7.735c0,5.001,4.068,9.069,9.069,9.069c5.001,0,9.069-4.068,9.069-9.069
	c0-4.272,3.462-7.735,7.735-7.735c4.273,0,7.735,3.463,7.735,7.735C121.105,354.19,110.097,365.199,96.566,365.199z"/>
<path style="fill:#1E81CE;" d="M195.328,135.001c-0.182,0-0.365-0.006-0.548-0.02l-36.758-2.573
	c-2.944-0.206-5.514-2.069-6.626-4.802s-0.572-5.861,1.392-8.063l29.594-33.189l-21.035-1.473c-4.263-0.298-7.474-3.995-7.176-8.256
	c0.298-4.261,3.997-7.485,8.256-7.176l36.758,2.573c2.944,0.206,5.514,2.068,6.626,4.801s0.572,5.861-1.392,8.063l-29.594,33.189
	l21.035,1.473c4.263,0.299,7.474,3.996,7.176,8.257C202.75,131.883,199.353,135.001,195.328,135.001z"/>
<path style="fill:#3D9AE2;" d="M106.13,168.913c-2.668,0-5.171-1.381-6.587-3.683c-1.546-2.513-1.526-5.687,0.048-8.182
	l21.053-33.34l-17.923,1.71c-4.262,0.397-8.029-2.714-8.435-6.966c-0.406-4.253,2.713-8.029,6.966-8.436l33.614-3.207
	c2.925-0.275,5.778,1.135,7.324,3.649c1.546,2.513,1.526,5.687-0.048,8.182l-21.053,33.34l17.923-1.71
	c4.251-0.407,8.028,2.714,8.435,6.966c0.406,4.253-2.713,8.029-6.966,8.436l-33.614,3.207
	C106.621,168.902,106.374,168.913,106.13,168.913z"/>
<path style="fill:#5AAAE7;" d="M59.932,206.523c-2.084,0-4.119-0.843-5.602-2.401c-2.036-2.136-2.677-5.245-1.655-8.013
	l10.53-28.536l-11.914,3.748c-4.079,1.281-8.418-0.983-9.7-5.057c-1.282-4.075,0.982-8.418,5.057-9.7l26.95-8.479
	c2.814-0.886,5.888-0.093,7.923,2.044c2.036,2.136,2.677,5.245,1.655,8.013l-10.53,28.537l11.916-3.749
	c4.079-1.283,8.418,0.983,9.7,5.058s-0.982,8.418-5.057,9.7l-26.951,8.479C61.49,206.407,60.708,206.523,59.932,206.523z"/>
<g>
</g>
<g>
</g>
<g>
</g>
<g>
</g>
<g>
</g>
<g>
</g>
<g>
</g>
<g>
</g>
<g>
</g>
<g>
</g>
<g>
</g>
<g>
</g>
<g>
</g>
<g>
</g>
<g>
</g>
</svg>
